# xmcd
#
# Track frame offsets: 
#        183
#        14553
#        27285
#        48413
#        66100
#        86390
#        109053
#        128155
#        146083
#        161260
#        184443
#        201318
#        216853
#        238885
#        251850
#        269478
#
# Disc length: 3891 seconds
#
# Revision: 3
# Processed by: cddbd v1.5.2PL0 Copyright (c) Steve Scherf et al.
# Submitted via: ExactAudioCopyFreeDBPlugin 1.0
#
DISCID=f30f3110
DTITLE=The Johnny Thompson Singers - Swing Low, Sweet Chariot
DYEAR=1988
DGENRE=Gospel
TTITLE0=Ezekiel saw the wheel
TTITLE1=Joshua fit the battle of Jericho
TTITLE2=Worthy is the Lamb
TTITLE3=Swing low sweet chariot
TTITLE4=Balm in Gilead
TTITLE5=Lord I want to be a Christian
TTITLE6=What are you waiting for
TTITLE7=One more chance
TTITLE8=Lord show me
TTITLE9=Surley, goodness and mercy
TTITLE10=Nobody knows
TTITLE11=Myself
TTITLE12=Because of my Lord
TTITLE13=I'll never say no
TTITLE14=Don't take God's love for granted
TTITLE15=Looking for Jesus to return
EXTD=YEAR: 1988 ID3G: 38
EXTT0=
EXTT1=
EXTT2=
EXTT3=
EXTT4=
EXTT5=
EXTT6=
EXTT7=
EXTT8=
EXTT9=
EXTT10=
EXTT11=
EXTT12=
EXTT13=
EXTT14=
EXTT15=
PLAYORDER=
